<svg width="48" height="48" viewBox="0 0 48 48" fill="none" xmlns="http://www.w3.org/2000/svg">
<path d="M0 24C0 10.7452 10.7452 0 24 0V0C37.2548 0 48 10.7452 48 24V24C48 37.2548 37.2548 48 24 48V48C10.7452 48 0 37.2548 0 24V24Z" fill="#E9EAFF"/>
<path d="M32.49 19.52C32.4843 19.4936 32.4843 19.4664 32.49 19.44C32.4851 19.4169 32.4851 19.3931 32.49 19.37V19.28L32.43 19.13C32.4056 19.0891 32.3753 19.052 32.34 19.02L32.25 18.94H32.2L28.26 16.45L24.54 14.15C24.4539 14.0817 24.3555 14.0308 24.25 14H24.17C24.0806 13.9851 23.9894 13.9851 23.9 14H23.8C23.6838 14.0257 23.5725 14.0696 23.47 14.13L16 18.78L15.91 18.85L15.82 18.93L15.72 19L15.67 19.06L15.61 19.21V19.3V19.36C15.6003 19.4263 15.6003 19.4937 15.61 19.56V28.29C15.6097 28.4599 15.6526 28.6272 15.7349 28.7759C15.8171 28.9246 15.9359 29.0499 16.08 29.14L23.58 33.78L23.73 33.84H23.81C23.9792 33.8936 24.1608 33.8936 24.33 33.84H24.41L24.56 33.78L32 29.21C32.1441 29.1199 32.2629 28.9946 32.3451 28.8459C32.4274 28.6972 32.4703 28.5299 32.47 28.36V19.63C32.47 19.63 32.49 19.56 32.49 19.52ZM24 16.17L25.78 17.27L20.19 20.73L18.4 19.63L24 16.17ZM23 31.17L17.5 27.81V21.42L23 24.82V31.17ZM24 23.06L22.09 21.91L27.68 18.44L29.6 19.63L24 23.06ZM30.5 27.78L25 31.2V24.82L30.5 21.42V27.78Z" fill="#383C9E"/>
</svg>
