<svg width="48" height="48" viewBox="0 0 48 48" fill="none" xmlns="http://www.w3.org/2000/svg">
<path d="M0 24C0 10.7452 10.7452 0 24 0V0C37.2548 0 48 10.7452 48 24V24C48 37.2548 37.2548 48 24 48V48C10.7452 48 0 37.2548 0 24V24Z" fill="#E9EAFF"/>
<path d="M33 26H32V19C32 18.2044 31.6839 17.4413 31.1213 16.8787C30.5587 16.3161 29.7956 16 29 16H19C18.2044 16 17.4413 16.3161 16.8787 16.8787C16.3161 17.4413 16 18.2044 16 19V26H15C14.7348 26 14.4804 26.1054 14.2929 26.2929C14.1054 26.4804 14 26.7348 14 27V29C14 29.7956 14.3161 30.5587 14.8787 31.1213C15.4413 31.6839 16.2044 32 17 32H31C31.7956 32 32.5587 31.6839 33.1213 31.1213C33.6839 30.5587 34 29.7956 34 29V27C34 26.7348 33.8946 26.4804 33.7071 26.2929C33.5196 26.1054 33.2652 26 33 26ZM18 19C18 18.7348 18.1054 18.4804 18.2929 18.2929C18.4804 18.1054 18.7348 18 19 18H29C29.2652 18 29.5196 18.1054 29.7071 18.2929C29.8946 18.4804 30 18.7348 30 19V26H18V19ZM32 29C32 29.2652 31.8946 29.5196 31.7071 29.7071C31.5196 29.8946 31.2652 30 31 30H17C16.7348 30 16.4804 29.8946 16.2929 29.7071C16.1054 29.5196 16 29.2652 16 29V28H32V29Z" fill="#383C9E"/>
</svg>
