<svg width="48" height="48" viewBox="0 0 48 48" fill="none" xmlns="http://www.w3.org/2000/svg">
<path d="M0 24C0 10.7452 10.7452 0 24 0V0C37.2548 0 48 10.7452 48 24V24C48 37.2548 37.2548 48 24 48V48C10.7452 48 0 37.2548 0 24V24Z" fill="#E9EAFF"/>
<path d="M20.5 29C20.7652 29 21.0196 28.8946 21.2071 28.7071C21.3946 28.5196 21.5 28.2652 21.5 28C21.5049 27.9334 21.5049 27.8666 21.5 27.8C21.4891 27.7374 21.4688 27.6767 21.44 27.62C21.4181 27.5563 21.3878 27.4957 21.35 27.44L21.23 27.29C21.1349 27.199 21.0228 27.1276 20.9 27.08C20.7131 26.992 20.5035 26.964 20.3 27L20.12 27.06L19.94 27.15C19.8876 27.1869 19.8375 27.227 19.79 27.27L19.67 27.42C19.6322 27.4757 19.6019 27.5363 19.58 27.6C19.5512 27.6567 19.5309 27.7174 19.52 27.78C19.5151 27.8466 19.5151 27.9134 19.52 27.98C19.52 28.2452 19.6254 28.4996 19.8129 28.6871C20.0004 28.8746 20.2548 28.98 20.52 28.98L20.5 29ZM28.5 29C28.7652 29 29.0196 28.8946 29.2071 28.7071C29.3946 28.5196 29.5 28.2652 29.5 28C29.5049 27.9334 29.5049 27.8666 29.5 27.8C29.4891 27.7374 29.4688 27.6767 29.44 27.62C29.4181 27.5563 29.3878 27.4957 29.35 27.44L29.23 27.29C29.1328 27.2017 29.0212 27.1306 28.9 27.08C28.6565 26.98 28.3835 26.98 28.14 27.08C28.0188 27.1306 27.9072 27.2017 27.81 27.29L27.69 27.44C27.6522 27.4957 27.6219 27.5563 27.6 27.62C27.5712 27.6767 27.5509 27.7374 27.54 27.8C27.5351 27.8666 27.5351 27.9334 27.54 28C27.5411 28.2623 27.6453 28.5137 27.83 28.7C28.0072 28.8813 28.2467 28.9886 28.5 29V29ZM25.5 17H23.5C23.2348 17 22.9804 17.1054 22.7929 17.2929C22.6054 17.4804 22.5 17.7348 22.5 18C22.5 18.2652 22.6054 18.5196 22.7929 18.7071C22.9804 18.8946 23.2348 19 23.5 19H25.5C25.7652 19 26.0196 18.8946 26.2071 18.7071C26.3946 18.5196 26.5 18.2652 26.5 18C26.5 17.7348 26.3946 17.4804 26.2071 17.2929C26.0196 17.1054 25.7652 17 25.5 17ZM30.5 14H18.5C17.7044 14 16.9413 14.3161 16.3787 14.8787C15.8161 15.4413 15.5 16.2044 15.5 17V29C15.5017 29.6189 15.6949 30.2222 16.0529 30.7271C16.411 31.2319 16.9165 31.6137 17.5 31.82V33C17.5 33.2652 17.6054 33.5196 17.7929 33.7071C17.9804 33.8946 18.2348 34 18.5 34C18.7652 34 19.0196 33.8946 19.2071 33.7071C19.3946 33.5196 19.5 33.2652 19.5 33V32H29.5V33C29.5 33.2652 29.6054 33.5196 29.7929 33.7071C29.9804 33.8946 30.2348 34 30.5 34C30.7652 34 31.0196 33.8946 31.2071 33.7071C31.3946 33.5196 31.5 33.2652 31.5 33V31.82C32.0835 31.6137 32.589 31.2319 32.9471 30.7271C33.3051 30.2222 33.4983 29.6189 33.5 29V17C33.5 16.2044 33.1839 15.4413 32.6213 14.8787C32.0587 14.3161 31.2956 14 30.5 14ZM31.5 29C31.5 29.2652 31.3946 29.5196 31.2071 29.7071C31.0196 29.8946 30.7652 30 30.5 30H18.5C18.2348 30 17.9804 29.8946 17.7929 29.7071C17.6054 29.5196 17.5 29.2652 17.5 29V26H31.5V29ZM31.5 24H17.5V17C17.5 16.7348 17.6054 16.4804 17.7929 16.2929C17.9804 16.1054 18.2348 16 18.5 16H30.5C30.7652 16 31.0196 16.1054 31.2071 16.2929C31.3946 16.4804 31.5 16.7348 31.5 17V24Z" fill="#383C9E"/>
</svg>
