<svg width="73" height="22" viewBox="0 0 73 22" fill="none" xmlns="http://www.w3.org/2000/svg">
<path fill-rule="evenodd" clip-rule="evenodd" d="M1 21.3175V0.542969H9.77457L13.3468 4.11522V9.14412L11.578 10.9129L13.3468 12.6817V17.8146L9.84393 21.3175H1ZM4.71098 9.10953V4.04595H8.14451L9.77457 5.67601V7.54884L8.21387 9.10953H4.71098ZM4.71098 12.7512V17.8148H8.21387L9.77457 16.2541V14.3813L8.14451 12.7512H4.71098Z" fill="white"/>
<path d="M1 0.542969V0.508287H0.965318V0.542969H1ZM1 21.3175H0.965318V21.3522H1V21.3175ZM9.77457 0.542969L9.79909 0.518445L9.78893 0.508287H9.77457V0.542969ZM13.3468 4.11522H13.3815V4.10086L13.3713 4.0907L13.3468 4.11522ZM13.3468 9.14412L13.3713 9.16865L13.3815 9.15849V9.14412H13.3468ZM11.578 10.9129L11.5535 10.8884L11.529 10.9129L11.5535 10.9374L11.578 10.9129ZM13.3468 12.6817H13.3815V12.6673L13.3713 12.6572L13.3468 12.6817ZM13.3468 17.8146L13.3713 17.8392L13.3815 17.829V17.8146H13.3468ZM9.84393 21.3175V21.3522H9.8583L9.86845 21.3421L9.84393 21.3175ZM4.71098 4.04595V4.01127H4.6763V4.04595H4.71098ZM4.71098 9.10953H4.6763V9.14422H4.71098V9.10953ZM8.14451 4.04595L8.16903 4.02143L8.15888 4.01127H8.14451V4.04595ZM9.77457 5.67601H9.80925V5.66164L9.79909 5.65148L9.77457 5.67601ZM9.77457 7.54884L9.79909 7.57336L9.80925 7.5632V7.54884H9.77457ZM8.21387 9.10953V9.14422H8.22824L8.2384 9.13406L8.21387 9.10953ZM4.71098 17.8148H4.6763V17.8495H4.71098V17.8148ZM4.71098 12.7512V12.7166H4.6763V12.7512H4.71098ZM8.21387 17.8148V17.8495H8.22824L8.2384 17.8393L8.21387 17.8148ZM9.77457 16.2541L9.79909 16.2786L9.80925 16.2685V16.2541H9.77457ZM9.77457 14.3813H9.80925V14.3669L9.79909 14.3568L9.77457 14.3813ZM8.14451 12.7512L8.16903 12.7267L8.15888 12.7166H8.14451V12.7512ZM0.965318 0.542969V21.3175H1.03468V0.542969H0.965318ZM9.77457 0.508287H1V0.577651H9.77457V0.508287ZM13.3713 4.0907L9.79909 0.518445L9.75004 0.567493L13.3223 4.13975L13.3713 4.0907ZM13.3815 9.14412V4.11522H13.3121V9.14412H13.3815ZM11.6026 10.9374L13.3713 9.16865L13.3223 9.1196L11.5535 10.8884L11.6026 10.9374ZM13.3713 12.6572L11.6026 10.8884L11.5535 10.9374L13.3223 12.7062L13.3713 12.6572ZM13.3815 17.8146V12.6817H13.3121V17.8146H13.3815ZM9.86845 21.3421L13.3713 17.8392L13.3223 17.7901L9.81941 21.293L9.86845 21.3421ZM1 21.3522H9.84393V21.2829H1V21.3522ZM4.6763 4.04595V9.10953H4.74567V4.04595H4.6763ZM8.14451 4.01127H4.71098V4.08063H8.14451V4.01127ZM9.79909 5.65148L8.16903 4.02143L8.11999 4.07047L9.75004 5.70053L9.79909 5.65148ZM9.80925 7.54884V5.67601H9.73988V7.54884H9.80925ZM8.2384 9.13406L9.79909 7.57336L9.75004 7.52432L8.18935 9.08501L8.2384 9.13406ZM4.71098 9.14422H8.21387V9.07485H4.71098V9.14422ZM4.74567 17.8148V12.7512H4.6763V17.8148H4.74567ZM8.21387 17.7801H4.71098V17.8495H8.21387V17.7801ZM9.75004 16.2296L8.18935 17.7903L8.2384 17.8393L9.79909 16.2786L9.75004 16.2296ZM9.73988 14.3813V16.2541H9.80925V14.3813H9.73988ZM8.11999 12.7758L9.75004 14.4058L9.79909 14.3568L8.16903 12.7267L8.11999 12.7758ZM4.71098 12.7859H8.14451V12.7166H4.71098V12.7859Z" fill="white"/>
<path d="M16.3642 21.2482V0.542969H28.4335V4.11522H19.9364V9.17881H24.8613V12.7511H19.9364V17.8146H28.4335V21.2482H16.3642Z" fill="white"/>
<path d="M31.4855 21.2484V0.473877H35.1272L40.1908 9.9074V0.473877H43.763V21.2484H40.1908L35.1272 11.8149V21.2484H31.4855Z" fill="white"/>
<path d="M58.9884 6.8207H55.3468H55.2775V5.81492L53.578 4.1155H52.052L50.3526 5.81492V16.4623L51.7746 17.8843H53.578L55.3468 16.1155V14.8323H58.9884V17.8843L55.3468 21.5259H50.3526L46.711 17.8843V4.1155L50.3526 0.473877H55.3468L58.9884 4.1155V6.8207Z" fill="white"/>
<path fill-rule="evenodd" clip-rule="evenodd" d="M65.1965 0.542969H68.5607L73 21.3869H69.4971L69.1503 20.1037H64.6416L64.2948 21.3869H60.8613L65.1965 0.542969ZM66.8613 9.3177L68.3526 16.5316H65.2659L66.8613 9.3177Z" fill="white"/>
</svg>
